<svg fill="none" height="52" viewBox="0 0 160 52" width="160" xmlns="http://www.w3.org/2000/svg" xmlns:xlink="http://www.w3.org/1999/xlink"><filter id="a" color-interpolation-filters="sRGB" filterUnits="userSpaceOnUse" height="49.4528" width="41.1296" x=".359825" y="0"><feFlood flood-opacity="0" result="BackgroundImageFix"/><feColorMatrix in="SourceAlpha" type="matrix" values="0 0 0 0 0 0 0 0 0 0 0 0 0 0 0 0 0 0 127 0"/><feOffset dx="-2" dy="6"/><feColorMatrix type="matrix" values="0 0 0 0 0.95 0 0 0 0 0.0435417 0 0 0 0 0.478642 0 0 0 1 0"/><feBlend in2="BackgroundImageFix" mode="normal" result="effect1_dropShadow"/><feBlend in="SourceGraphic" in2="effect1_dropShadow" mode="normal" result="shape"/></filter><path d="m0 0h34v37h-34z" fill="#271d99" transform="matrix(-1 0 0 1 34 11.3259)"/><g filter="url(#a)"><path d="m0 0h30.1277v34.2856h-30.1277z" fill="#fff" transform="matrix(-.930851 .365399 .323318 .94629 30.4042 0)"/></g><g fill="#c8c7f4"><path d="m0 0h11.7677v3.59086h-11.7677z" transform="matrix(.940323 -.340283 .346876 .937911 20 26.0043)"/><path d="m0 0h11.7677v3.59086h-11.7677z" transform="matrix(.940323 -.340283 .346876 .937911 17 18.0043)"/><path d="m0 0h11.7677v3.59086h-11.7677z" transform="matrix(.940323 -.340283 .346876 .937911 14.2509 11.0043)"/></g><g stroke="#f20b7a" stroke-width="2"><path d="m8 15.241c2.7429.9693 3.4286.8078 3.4286.6058l.5714-4.8468"/><path d="m11 23.241c2.7429.9693 3.4286.8078 3.4286.6058l.5714-4.8468"/><path d="m14 31.241c2.7429.9693 3.4286.8078 3.4286.6058l.5714-4.8468"/></g><path d="m59.3984 39.2656h15.4922v4.7344h-21.4218v-34.125h5.9296zm25.5469 4.7344h-5.6953v-25.3594h5.6953zm-6.0469-31.9453c0-.875.2735-1.6016.8204-2.1797.5624-.57813 1.3593-.86719 2.3906-.86719 1.0312 0 1.8281.28906 2.3906.86719.5625.5781.8438 1.3047.8438 2.1797 0 .8594-.2813 1.5781-.8438 2.1562-.5625.5625-1.3594.8438-2.3906.8438-1.0313 0-1.8282-.2813-2.3906-.8438-.5469-.5781-.8204-1.2968-.8204-2.1562zm26.4846 25.0547c0-1.0156-.422-1.7891-1.266-2.3203-.828-.5313-2.211-1-4.1482-1.4063-1.9376-.4062-3.5547-.9219-4.8516-1.5469-2.8438-1.375-4.2656-3.3671-4.2656-5.9765 0-2.1875.9218-4.0156 2.7656-5.4844 1.8437-1.4688 4.1875-2.2031 7.0308-2.2031 3.032 0 5.477.75 7.336 2.25 1.875 1.5 2.813 3.4453 2.813 5.8359h-5.695c0-1.0937-.407-2-1.219-2.7187-.813-.7344-1.891-1.1016-3.235-1.1016-1.2496 0-2.273.2891-3.0699.8672-.7812.5781-1.1719 1.3515-1.1719 2.3203 0 .875.3672 1.5547 1.1016 2.0391.7344.4843 2.2188.9765 4.4532 1.4765 2.234.4844 3.984 1.0703 5.25 1.7578 1.281.6719 2.227 1.4844 2.836 2.4375.625.9532.937 2.1094.937 3.4688 0 2.2812-.945 4.1328-2.836 5.5547-1.89 1.4062-4.367 2.1094-7.429 2.1094-2.0784 0-3.9299-.375-5.5549-1.125s-2.8907-1.7813-3.7969-3.0938c-.9063-1.3125-1.3594-2.7266-1.3594-4.2422h5.5313c.0781 1.3438.5859 2.3828 1.5234 3.1172.9375.7188 2.1797 1.0781 3.7265 1.0781 1.5 0 2.641-.2812 3.422-.8437.781-.5782 1.172-1.3282 1.172-2.25zm17.719-24.6328v6.164h4.476v4.2188h-4.476v14.1562c0 .9688.187 1.6719.562 2.1094.391.4219 1.078.6328 2.063.6328.656 0 1.32-.0781 1.992-.2344v4.4063c-1.297.3594-2.547.5391-3.75.5391-4.375 0-6.563-2.4141-6.563-7.2422v-14.3672h-4.172v-4.2188h4.172v-6.164zm7.078 18.6093c0-2.4843.492-4.7187 1.476-6.7031.985-2 2.367-3.5312 4.149-4.5937 1.781-1.0782 3.828-1.6172 6.14-1.6172 3.422 0 6.196 1.1015 8.321 3.3047 2.14 2.2031 3.296 5.125 3.468 8.7656l.024 1.3359c0 2.5-.485 4.7344-1.453 6.7031-.953 1.9688-2.328 3.4922-4.125 4.5704-1.782 1.0781-3.844 1.6172-6.188 1.6172-3.578 0-6.445-1.1876-8.601-3.5626-2.141-2.3906-3.211-5.5703-3.211-9.539zm5.695.4922c0 2.6094.539 4.6563 1.617 6.1407 1.078 1.4687 2.578 2.2031 4.5 2.2031s3.414-.75 4.477-2.25c1.078-1.5 1.617-3.6953 1.617-6.586 0-2.5625-.555-4.5937-1.664-6.0937-1.094-1.5-2.586-2.25-4.477-2.25-1.859 0-3.336.7422-4.429 2.2266-1.094 1.4687-1.641 3.6718-1.641 6.6093z" fill="#271d99"/></svg>